<?xml version="1.0" standalone="no"?>
<!DOCTYPE svg PUBLIC "-//W3C//DTD SVG 20010904//EN"
 "http://www.w3.org/TR/2001/REC-SVG-20010904/DTD/svg10.dtd">
<svg version="1.0" xmlns="http://www.w3.org/2000/svg"
 width="798.000000pt" height="798.000000pt" viewBox="0 0 798.000000 798.000000"
 preserveAspectRatio="xMidYMid meet">
<metadata>
Created by potrace 1.11, written by Peter Selinger 2001-2013
</metadata>
<g transform="translate(0.000000,798.000000) scale(0.100000,-0.100000)"
fill="#000000" stroke="none">
<path d="M3670 7959 c-530 -46 -1006 -181 -1475 -418 -835 -423 -1479 -1118
-1845 -1990 -304 -724 -378 -1559 -209 -2355 233 -1102 929 -2056 1913 -2620
389 -224 841 -386 1281 -460 269 -45 354 -51 685 -50 267 0 340 3 480 22 760
102 1405 376 1999 850 227 180 562 542 744 803 552 792 798 1803 671 2764
-151 1149 -758 2142 -1704 2784 -533 362 -1103 575 -1760 656 -150 19 -628 28
-780 14z m695 -294 c1627 -172 2936 -1382 3234 -2990 54 -290 75 -689 52 -970
-62 -753 -330 -1425 -805 -2019 -111 -140 -397 -424 -541 -538 -560 -444
-1170 -697 -1895 -784 -176 -22 -597 -24 -770 -5 -721 80 -1367 344 -1925 787
-141 112 -456 427 -569 569 -444 556 -715 1222 -791 1940 -19 183 -19 567 0
750 109 1026 620 1932 1441 2553 509 384 1149 635 1804 706 173 19 590 19 765
1z"/>
<path d="M3300 7524 c-36 -7 -112 -37 -170 -66 -91 -45 -117 -65 -201 -148
-103 -103 -155 -187 -179 -289 -28 -119 -54 -56 585 -1416 323 -687 591 -1254
595 -1259 12 -12 11 -28 135 1367 122 1361 120 1335 81 1445 -23 65 -82 147
-145 202 -75 66 -209 135 -312 160 -100 24 -287 26 -389 4z"/>
<path d="M4760 7366 c-223 -48 -391 -182 -414 -331 -3 -22 -58 -625 -121
-1340 -63 -715 -117 -1317 -120 -1337 -3 -21 -1 -38 3 -38 10 0 1535 2096
1569 2155 59 107 66 250 19 387 -37 106 -82 174 -181 273 -102 102 -195 160
-333 208 -77 26 -103 30 -222 33 -89 2 -157 -1 -200 -10z"/>
<path d="M2035 6956 c-128 -25 -263 -90 -377 -182 -251 -202 -346 -634 -189
-851 21 -28 352 -270 1157 -843 621 -442 1135 -808 1142 -813 7 -5 14 -8 16
-6 3 3 -885 1919 -1104 2381 -80 170 -175 256 -330 302 -76 23 -229 29 -315
12z"/>
<path d="M5964 6539 c-22 -5 -65 -24 -94 -42 -51 -30 -94 -89 -842 -1151 -434
-616 -786 -1121 -784 -1123 9 -9 2435 1069 2486 1105 63 45 120 120 151 201
34 86 38 279 10 392 -56 226 -211 428 -408 531 -135 71 -206 90 -353 94 -69 2
-143 -1 -166 -7z m-276 -1086 c39 -24 56 -78 42 -132 -18 -72 -48 -110 -127
-162 -86 -56 -155 -84 -271 -109 l-83 -18 6 31 c24 116 132 309 202 363 69 53
173 65 231 27z"/>
<path d="M1115 5795 c-67 -19 -181 -77 -239 -120 -111 -85 -238 -292 -271
-441 -24 -106 -17 -310 15 -409 52 -164 146 -292 253 -345 61 -30 74 -31 1431
-190 754 -88 1374 -159 1379 -157 16 5 -2153 1600 -2227 1637 -66 33 -76 35
-180 37 -72 1 -129 -3 -161 -12z m1338 -998 c74 -37 196 -126 245 -180 l24
-25 -109 -26 c-79 -19 -136 -26 -204 -26 -116 1 -161 10 -213 47 -110 78 -113
176 -8 233 29 16 53 20 113 18 64 -3 86 -9 152 -41z"/>
<path d="M6820 5197 c-50 -15 -2500 -1119 -2500 -1127 0 -6 2651 -291 2705
-291 63 1 155 29 214 64 127 76 242 253 277 427 32 160 5 379 -63 513 -141
279 -434 471 -633 414z"/>
<path d="M870 4272 c-286 -75 -462 -427 -396 -792 18 -96 45 -166 100 -260 84
-143 230 -275 366 -331 41 -17 76 -22 140 -23 l85 -1 1250 544 c688 299 1254
547 1259 552 6 6 4 9 -5 9 -8 0 -612 72 -1342 160 -730 88 -1342 160 -1360
159 -17 0 -61 -8 -97 -17z"/>
<path d="M4316 3891 c11 -10 2026 -1445 2148 -1529 109 -75 186 -102 296 -102
237 0 462 159 585 414 56 116 76 203 76 331 0 315 -165 586 -376 619 -56 9
-2684 276 -2715 276 -14 0 -20 -4 -14 -9z"/>
<path d="M2530 3295 c-657 -283 -1211 -522 -1229 -532 -55 -28 -144 -117 -174
-171 -65 -120 -85 -309 -48 -454 36 -140 144 -323 246 -417 253 -233 669 -293
831 -119 17 18 379 517 804 1108 425 591 777 1081 783 1088 6 8 5 12 -4 11 -8
0 -552 -232 -1209 -514z m-100 -505 c0 -16 -46 -132 -75 -190 -15 -30 -52 -85
-82 -122 -67 -82 -122 -112 -206 -113 -54 0 -61 3 -88 33 -25 27 -29 41 -29
87 0 73 17 111 74 163 59 54 145 95 267 127 103 26 139 30 139 15z"/>
<path d="M4756 2603 c300 -637 563 -1195 586 -1241 95 -193 265 -292 503 -292
293 0 584 191 703 462 101 231 83 496 -41 615 -40 39 -2249 1597 -2280 1609
-9 3 228 -513 529 -1153z"/>
<path d="M3123 2642 c-419 -588 -774 -1094 -788 -1124 -70 -154 -46 -340 68
-516 108 -167 314 -305 521 -349 89 -19 303 -12 391 12 156 43 283 134 335
239 l31 62 104 1325 c57 728 106 1345 108 1372 2 26 1 47 -2 47 -3 0 -349
-481 -768 -1068z m402 -138 c10 -115 1 -266 -19 -332 -18 -57 -63 -115 -107
-138 -15 -7 -48 -14 -72 -14 -38 0 -49 5 -75 34 -40 46 -56 117 -42 181 14 64
46 119 112 191 53 57 175 164 189 164 4 0 10 -39 14 -86z"/>
<path d="M4060 3683 c0 -5 -48 -588 -106 -1294 -70 -850 -104 -1316 -102
-1379 3 -86 8 -103 42 -174 78 -161 255 -287 464 -331 86 -19 258 -19 344 0
149 31 279 104 399 225 124 125 192 289 169 410 -8 43 -1177 2520 -1201 2545
-6 5 -9 5 -9 -2z"/>
</g>
</svg>
